<svg xmlns="http://www.w3.org/2000/svg" viewBox="0 0 24 24" width="30" height="30" color="white" fill="none">
    <path d="M11.998 22.75C17.9351 22.75 22.748 17.9371 22.748 12C22.748 6.06294 17.9351 1.25 11.998 1.25C11.5838 1.25 11.248 1.58579 11.248 2C11.248 2.41421 11.5838 2.75 11.998 2.75C17.1066 2.75 21.248 6.89137 21.248 12C21.248 17.1086 17.1066 21.25 11.998 21.25C6.88942 21.25 2.74805 17.1086 2.74805 12C2.74805 11.5858 2.41226 11.25 1.99805 11.25C1.58384 11.25 1.24805 11.5858 1.24805 12C1.24805 17.9371 6.06099 22.75 11.998 22.75ZM5.5127 4.35059C5.75641 4.68543 6.22566 4.75923 6.56055 4.51562C7.33761 3.95005 8.20604 3.50301 9.13867 3.2002C9.53264 3.07227 9.74804 2.64885 9.62012 2.25488C9.49208 1.86129 9.06952 1.6458 8.67578 1.77344C7.59042 2.12585 6.58033 2.6458 5.67774 3.30273C5.34311 3.54644 5.26929 4.01577 5.5127 4.35059ZM2.25293 9.62305C2.64691 9.75094 3.07035 9.5346 3.19825 9.14062C3.50107 8.20798 3.94809 7.33957 4.51367 6.5625C4.75731 6.22761 4.68349 5.75837 4.34864 5.51465C4.01381 5.27124 3.54448 5.34503 3.30078 5.67969C2.64377 6.58239 2.1239 7.59223 1.77149 8.67773C1.64361 9.07165 1.85906 9.49509 2.25293 9.62305ZM11.998 16.75C12.4122 16.75 12.748 16.4142 12.748 16V12.75H15.998C16.4122 12.75 16.748 12.4142 16.748 12C16.748 11.5858 16.4122 11.25 15.998 11.25H12.748V8C12.748 7.58579 12.4122 7.25 11.998 7.25C11.5838 7.25 11.248 7.58579 11.248 8V11.25H7.99805C7.58384 11.25 7.24805 11.5858 7.24805 12C7.24805 12.4142 7.58384 12.75 7.99805 12.75H11.248V16C11.248 16.4142 11.5838 16.75 11.998 16.75Z" fill="currentColor" />
</svg>